<?xml version="1.0" standalone="no"?><!DOCTYPE svg PUBLIC "-//W3C//DTD SVG 1.1//EN" "http://www.w3.org/Graphics/SVG/1.1/DTD/svg11.dtd"><svg class="icon" height="512" viewBox="0 0 1024 1024" version="1.1" xmlns="http://www.w3.org/2000/svg"><path d="M356.6 406.2c50-35.8 66-99 35.8-141-30.2-42-95-46.8-145-11s-66 99-35.8 141c30.2 42 95.2 47 145 11zM624 255.2c30-21.6 39.6-59.4 21.4-84.6-18-25.2-57-28.2-87-6.6s-39.6 59.4-21.4 84.6c18 25.2 57 28.2 87 6.6zM540 394.8c30-21.6 39.6-59.4 21.4-84.6-18-25.2-57-28.2-87-6.6s-39.6 59.4-21.4 84.6c18.2 25.2 57 28 87 6.6zM258.6 471c-18-25.2-57-28.2-87-6.6S132 523.8 150 549c18.2 25.2 57 28.2 87 6.6s39.6-59.4 21.6-84.6zM316.6 526.4c-30 21.6-39.6 59.4-21.4 84.6 18.2 25.2 57 28.2 87 6.6s39.6-59.4 21.4-84.6c-18-25.2-57-28.2-87-6.6zM264.6 687.4c-30 21.6-39.6 59.4-21.4 84.6 18.2 25.2 57 28.2 87 6.6s39.6-59.4 21.4-84.6c-18-25.2-57-28.2-87-6.6zM478 507.2c-36 59-24.8 131.2 24.8 161.4 49.6 30.2 118.8 6.8 154.8-52.2 36-59 24.8-131.2-24.8-161.4-49.6-30.2-118.8-6.8-154.8 52.2zM420.6 726.4c-42.4 30.6-56 84.2-30.4 119.8 25.6 35.8 80.8 40 123.2 9.4 42.4-30.6 56-84.2 30.4-119.8-25.6-35.8-80.8-39.8-123.2-9.4zM850.2 508c-18-25.2-57-28.2-87-6.6s-39.6 59.4-21.4 84.6c18.2 25.2 57 28.2 87 6.6 29.8-21.6 39.4-59.6 21.4-84.6zM744.4 664.2c-20 14.4-26.4 39.6-14.4 56.4 12 16.8 38 18.8 58 4.4s26.4-39.6 14.4-56.4c-12-16.8-38-18.6-58-4.4zM615.8 745c-25 18-33 49.4-18 70.4 15.2 21 47.6 23.4 72.6 5.6 25-18 33-49.6 17.8-70.4-15-21-47.4-23.6-72.4-5.6zM780.2 319c-19.6-27.2-61.8-30.4-94.2-7.2-32.4 23.4-42.8 64.4-23.2 91.6 19.6 27.4 61.8 30.6 94.2 7.2 32.6-23.2 43-64.4 23.2-91.6z" fill="#3E3A39" /><path d="M843.2 180.8c-88.4-88.4-206-137.2-331.2-137.2-125 0-242.8 48.8-331.2 137.2-88.4 88.4-137.2 206-137.2 331.2 0 125.2 48.8 242.8 137.2 331.2 88.4 88.4 206 137.2 331.2 137.2s242.8-48.8 331.2-137.2 137.2-206 137.2-331.2c0-125-48.8-242.8-137.2-331.2zM512 923.6c-227 0-411.6-184.6-411.6-411.6 0-227 184.6-411.6 411.6-411.6S923.6 285 923.6 512c0 227-184.6 411.6-411.6 411.6z" fill="#3E3A39" /></svg>